<svg width="28" height="26" viewBox="0 0 28 26" fill="none" xmlns="http://www.w3.org/2000/svg">
<path d="M24.9886 2.21448C24.8505 0.853219 24.3036 0.578857 23.2416 0.578857H18.7175C17.7246 0.578857 17.4856 0.747696 17.1086 1.83987L13.7156 12.8724L10.3226 1.83987C9.94555 0.747696 9.7066 0.578857 8.71364 0.578857H4.18428C3.12229 0.578857 2.57537 0.853219 2.43731 2.21448L0.0372224 23.8732C-0.0636662 24.6541 0.00536284 24.9654 0.690344 25.0656L5.86752 25.8149C6.65339 25.9151 6.82862 25.7463 6.92951 25.1659L8.06052 15.0198L10.4925 24.5222C10.7314 25.3031 11.0394 25.6144 11.8306 25.6144H15.6006C16.3865 25.6144 16.6998 25.3083 16.9387 24.5222L19.3388 15.0198L20.5017 25.1659C20.6026 25.7463 20.7778 25.9151 21.5637 25.8149L26.7409 25.0656C27.4258 24.9654 27.4949 24.6594 27.394 23.8732L24.9886 2.21448Z" fill="#103559"/>
</svg>
